<svg xmlns="http://www.w3.org/2000/svg" xmlns:xlink="http://www.w3.org/1999/xlink" viewBox="0 0 1089.86 1180.35"><defs><style>.cls-1{font-size:296.81px;font-family:Montserrat-Bold, Montserrat;font-weight:700;}.cls-1,.cls-3{fill:#111440;}.cls-2{letter-spacing:-0.06em;}.cls-3{font-size:63.7px;font-family:Montserrat-Medium, Montserrat;font-weight:500;}.cls-4{letter-spacing:-0.01em;}.cls-5{letter-spacing:0em;}.cls-6{letter-spacing:-0.01em;}.cls-7{letter-spacing:-0.05em;}.cls-8{letter-spacing:-0.01em;}.cls-9{letter-spacing:0em;}.cls-10{letter-spacing:-0.05em;}.cls-11{fill:url(#linear-gradient);}.cls-12{fill:url(#linear-gradient-2);}.cls-13{fill:url(#linear-gradient-3);}.cls-14{fill:url(#linear-gradient-4);}.cls-15,.cls-16{fill:#7372ba;}.cls-15,.cls-16,.cls-17{stroke:#7372ba;}.cls-15,.cls-16,.cls-17,.cls-18,.cls-19,.cls-20,.cls-21,.cls-22,.cls-23,.cls-24,.cls-25,.cls-26{stroke-miterlimit:10;}.cls-15,.cls-18,.cls-21,.cls-24{stroke-width:19px;}.cls-16,.cls-19,.cls-22,.cls-25{stroke-width:6px;}.cls-17,.cls-20,.cls-23,.cls-26{fill:none;stroke-width:15px;}.cls-18,.cls-19{fill:#5a5a9c;}.cls-18,.cls-19,.cls-20{stroke:#5a5a9c;}.cls-21,.cls-22{fill:#42437d;}.cls-21,.cls-22,.cls-23{stroke:#42437d;}.cls-24,.cls-25{fill:#292b5f;}.cls-24,.cls-25,.cls-26{stroke:#292b5f;}</style><linearGradient id="linear-gradient" x1="463.88" y1="119.83" x2="747.39" y2="119.83" gradientUnits="userSpaceOnUse"><stop offset="0.16" stop-color="#111440"/><stop offset="0.29" stop-color="#303267"/><stop offset="0.44" stop-color="#505190"/><stop offset="0.59" stop-color="#6a69b0"/><stop offset="0.74" stop-color="#7c7bc6"/><stop offset="0.88" stop-color="#8785d4"/><stop offset="1" stop-color="#8b89d9"/></linearGradient><linearGradient id="linear-gradient-2" x1="688.03" y1="218.2" x2="853.82" y2="218.2" xlink:href="#linear-gradient"/><linearGradient id="linear-gradient-3" x1="690.56" y1="438.3" x2="927.22" y2="438.3" xlink:href="#linear-gradient"/><linearGradient id="linear-gradient-4" x1="559.21" y1="606.07" x2="853.71" y2="606.07" xlink:href="#linear-gradient"/></defs><g id="Layer_2" data-name="Layer 2"><g id="Layer_1-2" data-name="Layer 1"><text class="cls-1" transform="translate(0 1075.56)">Bİ<tspan class="cls-2" x="324.4" y="0">L</tspan><tspan x="484.38" y="0">TEK</tspan></text><text class="cls-3" transform="translate(23.13 1163.6)"><tspan class="cls-4">Y</tspan><tspan class="cls-5" x="40.45" y="0">BÜ Bilim </tspan><tspan class="cls-6" x="342.17" y="0">v</tspan><tspan x="376.82" y="0">e </tspan><tspan class="cls-7" x="432.94" y="0">T</tspan><tspan class="cls-5" x="466.82" y="0">e</tspan><tspan class="cls-8" x="505.81" y="0">k</tspan><tspan class="cls-9" x="544.6" y="0">n</tspan><tspan x="588.17" y="0">oloji </tspan><tspan class="cls-10" x="739.82" y="0">T</tspan><tspan x="773.71" y="0">opluluğu</tspan></text><path class="cls-11" d="M563.71,195.73a176.57,176.57,0,0,1,103.82,43.93l79.86-75.87A148.6,148.6,0,0,0,647.56,95.9Q631.6,52,615.62,8.05a273.83,273.83,0,0,0-131.78,0q-10,26-20,51.91c12.23-1.79,25.59-3.21,39.93-4a441.9,441.9,0,0,1,47.92,0,14.46,14.46,0,0,1,8,4c4.7,4.74,4.09,11.1,4,12Z"/><path class="cls-12" d="M688,262.7a176.5,176.5,0,0,1,46.14,102.85l110.15-1.2a148.56,148.56,0,0,0-26.91-117.69q18.21-43,36.41-86.09A273.4,273.4,0,0,0,757.3,70.86l-50,24.43c10.18,7,20.94,15.06,32,24.26a442.24,442.24,0,0,1,35.1,32.62,14.34,14.34,0,0,1,3.13,8.36c.22,6.68-4.55,10.91-5.23,11.5Z"/><path class="cls-13" d="M731.82,398.53a176.6,176.6,0,0,1-41.26,104.91l77.88,77.9a148.68,148.68,0,0,0,65.32-101.53l87-34.18A273.62,273.62,0,0,0,917.4,313.9L865,295.26c2.1,12.19,3.87,25.5,5,39.82a442.51,442.51,0,0,1,1.23,47.9,14.42,14.42,0,0,1-3.79,8.09c-4.62,4.82-11,4.37-11.87,4.3Z"/><path class="cls-14" d="M662.45,522.76a176.69,176.69,0,0,1-103.24,45.29q.15,55.08.29,110.16a148.64,148.64,0,0,0,117.91-25.94l85.79,37.12a273.75,273.75,0,0,0,90.51-95.78l-24-50.16c-7.1,10.12-15.24,20.8-24.52,31.76A441.86,441.86,0,0,1,772.25,610a14.28,14.28,0,0,1-8.38,3.06c-6.68.17-10.88-4.64-11.45-5.32Z"/><circle class="cls-15" cx="238.68" cy="169.18" r="14.67"/><circle class="cls-16" cx="419.76" cy="154.97" r="14.67"/><path class="cls-17" d="M421.13,151.76c-4.54,5.4-9.42,10.92-14.67,16.5-9.33,9.94-18.59,18.77-27.5,26.59l46.76,41.51a184.63,184.63,0,0,1,105.19-40.1q-.63-55.59-1.25-111.19A192.8,192.8,0,0,0,416,111.37l-83.82-38a259.84,259.84,0,0,0-90.7,92.76"/><circle class="cls-18" cx="177.31" cy="448.29" r="14.67"/><circle class="cls-19" cx="295.31" cy="310.2" r="14.67"/><path class="cls-20" d="M294,307c.61,7,1.06,14.39,1.3,22.05.42,13.63.12,26.42-.65,38.25l62.41-3.72a184.68,184.68,0,0,1,46-102.73l-79.51-77.73a192.79,192.79,0,0,0-61.79,99l-86.12,32.42a259.74,259.74,0,0,0,1.46,129.72"/><circle class="cls-21" cx="331.28" cy="689.04" r="14.67"/><circle class="cls-22" cx="317.07" cy="507.96" r="14.67"/><path class="cls-23" d="M313.86,506.59q8.11,6.81,16.5,14.67c9.94,9.34,18.77,18.6,26.59,27.5q20.76-23.38,41.51-46.76a184.63,184.63,0,0,1-40.1-105.19l-111.18,1.25a192.91,192.91,0,0,0,26.29,113.69q-19,41.91-38,83.82a259.84,259.84,0,0,0,92.76,90.7"/><circle class="cls-24" cx="610.39" cy="750.41" r="14.67"/><circle class="cls-25" cx="472.3" cy="632.41" r="14.67"/><path class="cls-26" d="M469.06,633.71c7-.61,14.39-1.06,22-1.3,13.63-.42,26.43-.12,38.25.65q-1.86-31.2-3.71-62.41a184.75,184.75,0,0,1-102.74-46l-77.73,79.51a192.9,192.9,0,0,0,99,61.79L476.57,752a259.72,259.72,0,0,0,129.72-1.46"/></g></g></svg>