<svg xmlns="http://www.w3.org/2000/svg" xmlns:xlink="http://www.w3.org/1999/xlink" viewBox="0 0 1656.11 577.5"><defs><style>.cls-1{font-size:279.75px;font-family:Montserrat-Bold, Montserrat;font-weight:700;}.cls-1,.cls-3{fill:#111440;}.cls-2{letter-spacing:-0.06em;}.cls-3{font-size:60px;font-family:Montserrat-Medium, Montserrat;font-weight:500;}.cls-4{letter-spacing:-0.01em;}.cls-5{letter-spacing:-0.01em;}.cls-6{letter-spacing:-0.05em;}.cls-7{letter-spacing:0em;}.cls-8{letter-spacing:-0.01em;}.cls-9{letter-spacing:0em;}.cls-10{fill:url(#linear-gradient);}.cls-11{fill:url(#linear-gradient-2);}.cls-12{fill:url(#linear-gradient-3);}.cls-13{fill:url(#linear-gradient-4);}.cls-14,.cls-15{fill:#7372ba;}.cls-14,.cls-15,.cls-16{stroke:#7372ba;}.cls-14,.cls-15,.cls-16,.cls-17,.cls-18,.cls-19,.cls-20,.cls-21,.cls-22,.cls-23,.cls-24,.cls-25{stroke-miterlimit:10;}.cls-14,.cls-17,.cls-20,.cls-23{stroke-width:19px;}.cls-15,.cls-18,.cls-21,.cls-24{stroke-width:6px;}.cls-16,.cls-19,.cls-22,.cls-25{fill:none;stroke-width:15px;}.cls-17,.cls-18{fill:#5a5a9c;}.cls-17,.cls-18,.cls-19{stroke:#5a5a9c;}.cls-20,.cls-21{fill:#42437d;}.cls-20,.cls-21,.cls-22{stroke:#42437d;}.cls-23,.cls-24{fill:#292b5f;}.cls-23,.cls-24,.cls-25{stroke:#292b5f;}</style><linearGradient id="linear-gradient" x1="233.14" y1="88.96" x2="443.62" y2="88.96" gradientUnits="userSpaceOnUse"><stop offset="0.16" stop-color="#111440"/><stop offset="0.29" stop-color="#303267"/><stop offset="0.44" stop-color="#505190"/><stop offset="0.59" stop-color="#6a69b0"/><stop offset="0.74" stop-color="#7c7bc6"/><stop offset="0.88" stop-color="#8785d4"/><stop offset="1" stop-color="#8b89d9"/></linearGradient><linearGradient id="linear-gradient-2" x1="399.55" y1="162" x2="522.64" y2="162" xlink:href="#linear-gradient"/><linearGradient id="linear-gradient-3" x1="401.43" y1="325.4" x2="577.13" y2="325.4" xlink:href="#linear-gradient"/><linearGradient id="linear-gradient-4" x1="303.92" y1="449.95" x2="522.55" y2="449.95" xlink:href="#linear-gradient"/></defs><g id="Layer_2" data-name="Layer 2"><g id="Layer_1-2" data-name="Layer 1"><text class="cls-1" transform="translate(628.88 362.52)">Bİ<tspan class="cls-2" x="305.76" y="0">L</tspan><tspan x="456.55" y="0">TEK</tspan></text><text class="cls-3" transform="translate(651.15 450.14)"><tspan class="cls-4">Y</tspan><tspan x="38.1" y="0">BÜ Bilim </tspan><tspan class="cls-5" x="322.31" y="0">v</tspan><tspan x="354.95" y="0">e </tspan><tspan class="cls-6" x="407.81" y="0">T</tspan><tspan class="cls-7" x="439.73" y="0">e</tspan><tspan class="cls-8" x="476.45" y="0">k</tspan><tspan class="cls-9" x="512.99" y="0">n</tspan><tspan x="554.03" y="0">oloji </tspan><tspan class="cls-6" x="696.89" y="0">T</tspan><tspan x="728.81" y="0">opluluğu</tspan></text><path class="cls-10" d="M307.25,145.31a131.22,131.22,0,0,1,77.08,32.61l59.29-56.32a110.28,110.28,0,0,0-74.11-50.4Q357.66,38.59,345.79,6A203.09,203.09,0,0,0,248,6L233.14,44.52c9.08-1.33,19-2.39,29.65-3a329.07,329.07,0,0,1,35.57,0,10.7,10.7,0,0,1,5.93,3,11.22,11.22,0,0,1,3,8.89Z"/><path class="cls-11" d="M399.55,195a131,131,0,0,1,34.26,76.36l81.78-.89a110.36,110.36,0,0,0-20-87.38l27-63.91A203,203,0,0,0,451,52.6l-37.1,18.14c7.56,5.21,15.54,11.19,23.74,18A328.65,328.65,0,0,1,463.67,113a10.7,10.7,0,0,1,2.33,6.21,11.28,11.28,0,0,1-3.88,8.53Z"/><path class="cls-12" d="M432.06,295.87a131.22,131.22,0,0,1-30.63,77.89l57.82,57.83a110.29,110.29,0,0,0,48.49-75.38l64.59-25.37a203.09,203.09,0,0,0-2.49-97.8l-38.91-13.83c1.56,9,2.87,18.93,3.72,29.56a327.48,327.48,0,0,1,.91,35.56,10.68,10.68,0,0,1-2.81,6,11.26,11.26,0,0,1-8.82,3.19Z"/><path class="cls-13" d="M380.56,388.1a131.16,131.16,0,0,1-76.64,33.62l.21,81.79a110.4,110.4,0,0,0,87.54-19.26l63.69,27.56a203,203,0,0,0,67.19-71.11q-8.91-18.61-17.83-37.24c-5.27,7.51-11.31,15.45-18.21,23.58a328.17,328.17,0,0,1-24.43,25.86,10.69,10.69,0,0,1-6.23,2.27,11.27,11.27,0,0,1-8.5-3.95Z"/><circle class="cls-14" cx="65.95" cy="125.6" r="10.89"/><circle class="cls-15" cx="200.39" cy="115.05" r="10.89"/><path class="cls-16" d="M201.41,112.67c-3.38,4-7,8.11-10.89,12.25-6.94,7.38-13.81,13.93-20.42,19.74l34.71,30.81A137.14,137.14,0,0,1,282.9,145.7L282,63.16a143,143,0,0,0-84.39,19.52L135.34,54.49A192.81,192.81,0,0,0,68,123.35"/><circle class="cls-17" cx="20.39" cy="332.81" r="10.89"/><circle class="cls-18" cx="107.99" cy="230.29" r="10.89"/><path class="cls-19" d="M107,227.89c.45,5.22.79,10.68,1,16.36.32,10.12.09,19.62-.48,28.4l46.34-2.76A137.07,137.07,0,0,1,188,193.62l-59-57.71a143.19,143.19,0,0,0-45.87,73.48L19.18,233.46a193,193,0,0,0,1.08,96.31"/><circle class="cls-20" cx="134.7" cy="511.55" r="10.89"/><circle class="cls-21" cx="124.15" cy="377.11" r="10.89"/><path class="cls-22" d="M121.77,376.09c4,3.38,8.11,7,12.25,10.89,7.38,6.94,13.93,13.81,19.74,20.42l30.81-34.71A137.14,137.14,0,0,1,154.8,294.6l-82.54.93a143,143,0,0,0,19.52,84.39L63.59,442.16a192.81,192.81,0,0,0,68.86,67.33"/><circle class="cls-23" cx="341.91" cy="557.11" r="10.89"/><circle class="cls-24" cx="239.39" cy="469.51" r="10.89"/><path class="cls-25" d="M237,470.47c5.22-.45,10.68-.79,16.36-1,10.12-.32,19.62-.09,28.4.48L279,423.65a137.07,137.07,0,0,1-76.27-34.16l-57.71,59a143.19,143.19,0,0,0,73.48,45.87q12,32,24.07,63.94a193,193,0,0,0,96.31-1.08"/></g></g></svg>